<svg width="28" height="14" viewBox="0 0 28 14" fill="none" xmlns="http://www.w3.org/2000/svg">
<path d="M0 5.88578C0 2.90577 4.17868 0.48999 9.33333 0.48999H28V1.16446C28 4.14448 23.8213 6.56025 18.6667 6.56025H0V5.88578Z" fill="#FA9F42"/>
<path d="M0 11.2816C0 9.41906 2.61167 7.9092 5.83333 7.9092H7C9.57733 7.9092 11.6667 9.11709 11.6667 10.6071C11.6667 12.0971 9.57733 13.305 7 13.305H0V11.2816Z" fill="#FA9F42"/>
<path d="M16.3333 11.2816C16.3333 9.41906 18.945 7.9092 22.1667 7.9092H23.3333C25.9107 7.9092 28 9.11709 28 10.6071C28 12.0971 25.9107 13.305 23.3333 13.305H16.3333V11.2816Z" fill="#FA9F42"/>
</svg>
