<svg width="130" height="14" viewBox="0 0 130 14" fill="none" xmlns="http://www.w3.org/2000/svg">
<path d="M3.54936 7.6973V11.0943H13.1172V13.0713H0V0.48999H12.9629V2.46706H3.54936V5.73821H12.1913V7.6973H3.54936Z" fill="#FDFDFD"/>
<path d="M27.786 8.54205H16.3663V6.67282H27.786V8.54205Z" fill="#FDFDFD"/>
<path d="M48.9823 0.48999H52.7786V13.0713H49.2292V4.10263L42.6552 10.4293H42.2231L35.6491 4.08466V13.0713H32.0997V0.48999H35.9269L42.4392 6.78066L48.9823 0.48999Z" fill="#FDFDFD"/>
<path d="M71.7775 9.40477H59.4937C59.7406 10.0758 60.2961 10.597 61.1603 10.9685C62.0451 11.3399 63.1356 11.5256 64.4319 11.5256C66.1809 11.5256 67.508 11.1542 68.4134 10.4113L71.1603 11.3459C69.6582 12.652 67.4051 13.305 64.401 13.305C61.9114 13.305 59.8846 12.8616 58.3208 11.975C56.7776 11.0763 56.006 9.94397 56.006 8.578C56.006 7.24797 56.7674 6.12763 58.29 5.21698C59.792 4.30633 61.7467 3.85101 64.1541 3.85101C66.3969 3.85101 68.2488 4.31232 69.7097 5.23496C71.1705 6.15759 71.901 7.27793 71.901 8.59597C71.901 8.83562 71.8598 9.10522 71.7775 9.40477ZM59.4628 7.82312H68.5368C68.3105 7.11617 67.7961 6.57097 66.9936 6.18754C66.2117 5.80411 65.255 5.6124 64.1233 5.6124C62.8887 5.6124 61.8599 5.8101 61.0369 6.20552C60.2138 6.60093 59.6891 7.14013 59.4628 7.82312Z" fill="#FDFDFD"/>
<path d="M82.9513 3.85101C84.7414 3.85101 86.1714 4.18651 87.2414 4.85751C88.3319 5.51654 88.8771 6.41521 88.8771 7.55352V13.0713H85.5438V7.75122C85.5438 7.08022 85.2352 6.56498 84.6179 6.20552C84.0006 5.84605 83.157 5.66632 82.0871 5.66632C80.8731 5.66632 79.9163 5.88799 79.2167 6.33133C78.5171 6.76269 78.1673 7.40374 78.1673 8.25448V13.0713H74.834V4.08466H78.1673V5.23496C79.1961 4.31232 80.7908 3.85101 82.9513 3.85101Z" fill="#FDFDFD"/>
<path d="M101.077 4.08466V5.95389H97.2502V10.2675C97.2502 10.6389 97.3942 10.9085 97.6823 11.0763C97.9704 11.2321 98.3922 11.3219 98.9477 11.3459C99.5238 11.3579 100.234 11.3519 101.077 11.3279V13.0713C98.5259 13.2511 96.6946 13.1253 95.5835 12.6939C94.4724 12.2506 93.9169 11.4418 93.9169 10.2675V5.95389H91.0774V4.08466H93.9169V2.14354L97.2502 1.56839V4.08466H101.077Z" fill="#FDFDFD"/>
<path d="M116.523 11.939C114.959 12.8497 113.035 13.305 110.751 13.305C108.468 13.305 106.544 12.8497 104.98 11.939C103.396 11.0164 102.603 9.89604 102.603 8.578C102.603 7.25995 103.396 6.13961 104.98 5.21698C106.544 4.30633 108.468 3.85101 110.751 3.85101C113.035 3.85101 114.959 4.30633 116.523 5.21698C118.107 6.13961 118.9 7.25995 118.9 8.578C118.9 9.89604 118.107 11.0164 116.523 11.939ZM105.937 8.578C105.937 9.39279 106.4 10.0698 107.326 10.609C108.252 11.1482 109.393 11.4178 110.751 11.4178C112.11 11.4178 113.251 11.1482 114.177 10.609C115.103 10.0698 115.566 9.39279 115.566 8.578C115.566 7.76321 115.103 7.08621 114.177 6.54701C113.251 6.00781 112.11 5.73821 110.751 5.73821C109.393 5.73821 108.252 6.00781 107.326 6.54701C106.4 7.08621 105.937 7.76321 105.937 8.578Z" fill="#FDFDFD"/>
<path d="M125.247 4.08466V5.59442C126.091 4.48007 127.675 3.9229 130 3.9229V6.02578C128.745 5.97785 127.634 6.15759 126.667 6.56498C125.72 6.9604 125.247 7.61942 125.247 8.54205V13.0713H121.914V4.08466H125.247Z" fill="#FDFDFD"/>
</svg>
